<mxfile host="app.diagrams.net" agent="Mozilla/5.0 (X11; Linux x86_64) AppleWebKit/537.36 (KHTML, like Gecko) Chrome/131.0.0.0 Safari/537.36" version="26.0.5">
  <diagram id="C5RBs43oDa-KdzZeNtuy" name="Page-1">
    <mxGraphModel dx="2211" dy="2002" grid="1" gridSize="10" guides="1" tooltips="1" connect="1" arrows="1" fold="1" page="1" pageScale="1" pageWidth="827" pageHeight="1169" math="0" shadow="0">
      <root>
        <mxCell id="WIyWlLk6GJQsqaUBKTNV-0" />
        <mxCell id="WIyWlLk6GJQsqaUBKTNV-1" parent="WIyWlLk6GJQsqaUBKTNV-0" />
        <mxCell id="cOOqRxGyi3BBQuWhHB6f-0" value="&lt;div style=&quot;box-sizing: border-box; width: 100%; background: rgb(228, 228, 228); padding: 2px;&quot;&gt;Schauspeiler&lt;/div&gt;&lt;table style=&quot;width:100%;font-size:1em;&quot; cellpadding=&quot;2&quot; cellspacing=&quot;0&quot;&gt;&lt;tbody&gt;&lt;tr&gt;&lt;td&gt;&amp;nbsp;name&lt;/td&gt;&lt;td&gt;&amp;nbsp;VARCHAR(50)&lt;/td&gt;&lt;/tr&gt;&lt;tr&gt;&lt;td&gt;&amp;nbsp;vorname&lt;/td&gt;&lt;td&gt;&amp;nbsp;VARCHAR(50)&lt;/td&gt;&lt;/tr&gt;&lt;tr&gt;&lt;td&gt;&amp;nbsp;geboren&lt;/td&gt;&lt;td&gt;&amp;nbsp; DATE&lt;/td&gt;&lt;/tr&gt;&lt;/tbody&gt;&lt;/table&gt;&amp;nbsp; staatsangehörigkeit&amp;nbsp; &amp;nbsp;VARCHAR(100)&lt;div&gt;&amp;nbsp; movies&amp;nbsp; &amp;nbsp; &amp;nbsp; &amp;nbsp; &amp;nbsp; &amp;nbsp; &amp;nbsp; &amp;nbsp; &amp;nbsp; &amp;nbsp; &amp;nbsp; &amp;nbsp;VARCHAR(250)&lt;/div&gt;" style="verticalAlign=top;align=left;overflow=fill;html=1;whiteSpace=wrap;" vertex="1" parent="WIyWlLk6GJQsqaUBKTNV-1">
          <mxGeometry x="-110" y="-160" width="290" height="120" as="geometry" />
        </mxCell>
        <mxCell id="cOOqRxGyi3BBQuWhHB6f-1" value="&lt;div style=&quot;box-sizing: border-box; width: 100%; background: rgb(228, 228, 228); padding: 2px;&quot;&gt;Genre&lt;/div&gt;&lt;table style=&quot;width:100%;font-size:1em;&quot; cellpadding=&quot;2&quot; cellspacing=&quot;0&quot;&gt;&lt;tbody&gt;&lt;tr&gt;&lt;td&gt;&amp;nbsp;genre_name&amp;nbsp; &amp;nbsp; &amp;nbsp; &amp;nbsp;VARCHAR(50)&lt;/td&gt;&lt;td&gt;&lt;br&gt;&lt;/td&gt;&lt;/tr&gt;&lt;tr&gt;&lt;td&gt;&amp;nbsp;beschreibung&amp;nbsp; &amp;nbsp; &amp;nbsp; TEXT&lt;/td&gt;&lt;td&gt;&lt;br&gt;&lt;/td&gt;&lt;/tr&gt;&lt;tr&gt;&lt;td&gt;&amp;nbsp;popularität&amp;nbsp; &amp;nbsp; &amp;nbsp; &amp;nbsp; &amp;nbsp; &amp;nbsp;INTEGER&lt;/td&gt;&lt;td&gt;&lt;br&gt;&lt;/td&gt;&lt;/tr&gt;&lt;/tbody&gt;&lt;/table&gt;&amp;nbsp; anzahl_movies&amp;nbsp; &amp;nbsp;INTEGER" style="verticalAlign=top;align=left;overflow=fill;html=1;whiteSpace=wrap;" vertex="1" parent="WIyWlLk6GJQsqaUBKTNV-1">
          <mxGeometry x="-110" y="230" width="290" height="120" as="geometry" />
        </mxCell>
        <mxCell id="cOOqRxGyi3BBQuWhHB6f-2" value="&lt;div style=&quot;box-sizing: border-box; width: 100%; background: rgb(228, 228, 228); padding: 2px;&quot;&gt;Broadcaster&lt;/div&gt;&lt;table style=&quot;width:100%;font-size:1em;&quot; cellpadding=&quot;2&quot; cellspacing=&quot;0&quot;&gt;&lt;tbody&gt;&lt;tr&gt;&lt;td&gt;&lt;table style=&quot;font-size: 1em; width: 290px;&quot; cellpadding=&quot;2&quot; cellspacing=&quot;0&quot;&gt;&lt;tbody&gt;&lt;tr&gt;&lt;td&gt;name&amp;nbsp; &amp;nbsp; &amp;nbsp; &amp;nbsp; &amp;nbsp; &amp;nbsp; &amp;nbsp; &amp;nbsp; &amp;nbsp; &amp;nbsp;VARCHAR(50)&lt;/td&gt;&lt;td&gt;&amp;nbsp;&lt;/td&gt;&lt;/tr&gt;&lt;/tbody&gt;&lt;/table&gt;&lt;/td&gt;&lt;td&gt;&lt;br&gt;&lt;/td&gt;&lt;/tr&gt;&lt;tr&gt;&lt;td&gt;&amp;nbsp;web_adresse&amp;nbsp; &amp;nbsp; &amp;nbsp; TEXT&lt;br&gt;&amp;nbsp;land&amp;nbsp; &amp;nbsp; &amp;nbsp; &amp;nbsp; &amp;nbsp; &amp;nbsp; &amp;nbsp; &amp;nbsp; &amp;nbsp; &amp;nbsp; &amp;nbsp;VARCHAR(50)&lt;br&gt;&amp;nbsp;anzahl_movies&amp;nbsp; &amp;nbsp; INTEGER&lt;/td&gt;&lt;td&gt;&lt;br&gt;&lt;/td&gt;&lt;/tr&gt;&lt;tr&gt;&lt;td&gt;&amp;nbsp;genre&amp;nbsp; &amp;nbsp; &amp;nbsp; &amp;nbsp; &amp;nbsp; &amp;nbsp; &amp;nbsp; &amp;nbsp; &amp;nbsp; &amp;nbsp;VARCHAR(50)&lt;/td&gt;&lt;td&gt;&lt;br&gt;&lt;/td&gt;&lt;/tr&gt;&lt;/tbody&gt;&lt;/table&gt;" style="verticalAlign=top;align=left;overflow=fill;html=1;whiteSpace=wrap;" vertex="1" parent="WIyWlLk6GJQsqaUBKTNV-1">
          <mxGeometry x="260" y="340" width="240" height="120" as="geometry" />
        </mxCell>
        <mxCell id="cOOqRxGyi3BBQuWhHB6f-9" value="&lt;div style=&quot;box-sizing: border-box; width: 100%; background: rgb(228, 228, 228); padding: 2px;&quot;&gt;Movie_Director&lt;/div&gt;&lt;table style=&quot;width:100%;font-size:1em;&quot; cellpadding=&quot;2&quot; cellspacing=&quot;0&quot;&gt;&lt;tbody&gt;&lt;tr&gt;&lt;td&gt;&amp;nbsp;name&lt;/td&gt;&lt;td&gt;&amp;nbsp; VARCHAR(50)&lt;/td&gt;&lt;/tr&gt;&lt;tr&gt;&lt;td&gt;&amp;nbsp;vorname&lt;/td&gt;&lt;td&gt;&amp;nbsp; VARCHAR(50)&lt;/td&gt;&lt;/tr&gt;&lt;tr&gt;&lt;td&gt;&amp;nbsp;geboren&lt;/td&gt;&lt;td&gt;&amp;nbsp; &amp;nbsp;DATE&lt;/td&gt;&lt;/tr&gt;&lt;/tbody&gt;&lt;/table&gt;&amp;nbsp; staatsangehörigkeit&amp;nbsp; &amp;nbsp;VARCHAR(100)&lt;div&gt;&amp;nbsp; movies&amp;nbsp; &amp;nbsp; &amp;nbsp; &amp;nbsp; &amp;nbsp; &amp;nbsp; &amp;nbsp; &amp;nbsp; &amp;nbsp; &amp;nbsp; &amp;nbsp; &amp;nbsp;VARCHAR(250)&lt;/div&gt;" style="verticalAlign=top;align=left;overflow=fill;html=1;whiteSpace=wrap;" vertex="1" parent="WIyWlLk6GJQsqaUBKTNV-1">
          <mxGeometry x="660" y="-160" width="290" height="120" as="geometry" />
        </mxCell>
        <mxCell id="cOOqRxGyi3BBQuWhHB6f-10" value="&lt;div style=&quot;box-sizing: border-box; width: 100%; background: rgb(228, 228, 228); padding: 2px;&quot;&gt;Movie&lt;/div&gt;&lt;table style=&quot;width:100%;font-size:1em;&quot; cellpadding=&quot;2&quot; cellspacing=&quot;0&quot;&gt;&lt;tbody&gt;&lt;tr&gt;&lt;td&gt;&amp;nbsp;titel&amp;nbsp; &amp;nbsp; &amp;nbsp; &amp;nbsp; &amp;nbsp; &amp;nbsp; &amp;nbsp; &amp;nbsp; &amp;nbsp; &amp;nbsp; &amp;nbsp; &amp;nbsp; VARCHAR(50)&lt;/td&gt;&lt;td&gt;&lt;br&gt;&lt;/td&gt;&lt;/tr&gt;&lt;tr&gt;&lt;td&gt;&amp;nbsp;beschreibung&amp;nbsp; &amp;nbsp; &amp;nbsp; &amp;nbsp; TEXT&lt;/td&gt;&lt;td&gt;&lt;br&gt;&lt;/td&gt;&lt;/tr&gt;&lt;tr&gt;&lt;td&gt;&amp;nbsp;genre&amp;nbsp; &amp;nbsp; &amp;nbsp; &amp;nbsp; &amp;nbsp; &amp;nbsp; &amp;nbsp; &amp;nbsp; &amp;nbsp; &amp;nbsp; &amp;nbsp;VARCHAR(50)&lt;/td&gt;&lt;td&gt;&lt;br&gt;&lt;/td&gt;&lt;/tr&gt;&lt;/tbody&gt;&lt;/table&gt;&amp;nbsp; dauer&amp;nbsp; &amp;nbsp; &amp;nbsp; &amp;nbsp; &amp;nbsp; &amp;nbsp; &amp;nbsp; &amp;nbsp; &amp;nbsp; &amp;nbsp; INTEGER&lt;div&gt;&amp;nbsp; release_jahr&amp;nbsp; &amp;nbsp; &amp;nbsp; &amp;nbsp; &amp;nbsp; YEAR&lt;/div&gt;&lt;div&gt;&amp;nbsp; auszeichnungen&amp;nbsp; &amp;nbsp; VARCHAR(50)&lt;/div&gt;&lt;div&gt;&amp;nbsp; ratings&amp;nbsp; &amp;nbsp; &amp;nbsp; &amp;nbsp; &amp;nbsp; &amp;nbsp; &amp;nbsp; &amp;nbsp; &amp;nbsp; &amp;nbsp; DECIMAL&lt;/div&gt;&lt;div&gt;&amp;nbsp; land&amp;nbsp; &amp;nbsp; &amp;nbsp; &amp;nbsp; &amp;nbsp; &amp;nbsp; &amp;nbsp; &amp;nbsp; &amp;nbsp; &amp;nbsp; &amp;nbsp; &amp;nbsp; VARCHAR(50)&lt;/div&gt;&lt;div&gt;&amp;nbsp; studio&amp;nbsp; &amp;nbsp; &amp;nbsp; &amp;nbsp; &amp;nbsp; &amp;nbsp; &amp;nbsp; &amp;nbsp; &amp;nbsp; &amp;nbsp; &amp;nbsp;VARCHAR(50)&lt;/div&gt;" style="verticalAlign=top;align=left;overflow=fill;html=1;whiteSpace=wrap;" vertex="1" parent="WIyWlLk6GJQsqaUBKTNV-1">
          <mxGeometry x="269" y="-40" width="290" height="180" as="geometry" />
        </mxCell>
        <mxCell id="cOOqRxGyi3BBQuWhHB6f-11" value="&lt;div style=&quot;box-sizing: border-box; width: 100%; background: rgb(228, 228, 228); padding: 2px;&quot;&gt;Studio&lt;/div&gt;&lt;table style=&quot;width:100%;font-size:1em;&quot; cellpadding=&quot;2&quot; cellspacing=&quot;0&quot;&gt;&lt;tbody&gt;&lt;tr&gt;&lt;td&gt;&amp;nbsp;name&amp;nbsp; &amp;nbsp; &amp;nbsp; &amp;nbsp; &amp;nbsp; &amp;nbsp; &amp;nbsp; &amp;nbsp; &amp;nbsp; &amp;nbsp; &amp;nbsp; VARCHAR(50)&lt;/td&gt;&lt;td&gt;&lt;br&gt;&lt;/td&gt;&lt;/tr&gt;&lt;tr&gt;&lt;td&gt;&amp;nbsp;beschreibung&amp;nbsp; &amp;nbsp; &amp;nbsp; &amp;nbsp; &amp;nbsp; TEXT&lt;/td&gt;&lt;td&gt;&lt;br&gt;&lt;/td&gt;&lt;/tr&gt;&lt;tr&gt;&lt;td&gt;&amp;nbsp;anzahl_genre&amp;nbsp; &amp;nbsp; &amp;nbsp; &amp;nbsp; &amp;nbsp; INTEGER&amp;nbsp; &amp;nbsp; &amp;nbsp; &amp;nbsp;&amp;nbsp;&lt;/td&gt;&lt;td&gt;&lt;br&gt;&lt;/td&gt;&lt;/tr&gt;&lt;/tbody&gt;&lt;/table&gt;&amp;nbsp; anzahl_movies&amp;nbsp; &amp;nbsp; &amp;nbsp; &amp;nbsp; INTEGER&lt;div&gt;&amp;nbsp; movies&amp;nbsp; &amp;nbsp; &amp;nbsp; &amp;nbsp; &amp;nbsp; &amp;nbsp; &amp;nbsp; &amp;nbsp; &amp;nbsp; &amp;nbsp; &amp;nbsp;TEXT&lt;/div&gt;&lt;div&gt;&amp;nbsp;&amp;nbsp;&lt;/div&gt;" style="verticalAlign=top;align=left;overflow=fill;html=1;whiteSpace=wrap;" vertex="1" parent="WIyWlLk6GJQsqaUBKTNV-1">
          <mxGeometry x="670" y="170" width="290" height="140" as="geometry" />
        </mxCell>
        <mxCell id="cOOqRxGyi3BBQuWhHB6f-18" value="" style="edgeStyle=entityRelationEdgeStyle;fontSize=12;html=1;endArrow=ERzeroToMany;endFill=1;startArrow=ERzeroToMany;rounded=0;startSize=8;endSize=8;curved=1;entryX=0.836;entryY=0.999;entryDx=0;entryDy=0;entryPerimeter=0;" edge="1" parent="WIyWlLk6GJQsqaUBKTNV-1" source="cOOqRxGyi3BBQuWhHB6f-2" target="cOOqRxGyi3BBQuWhHB6f-10">
          <mxGeometry width="100" height="100" relative="1" as="geometry">
            <mxPoint x="540" y="460" as="sourcePoint" />
            <mxPoint x="670" y="350" as="targetPoint" />
          </mxGeometry>
        </mxCell>
        <mxCell id="cOOqRxGyi3BBQuWhHB6f-21" value="" style="edgeStyle=entityRelationEdgeStyle;fontSize=12;html=1;endArrow=ERoneToMany;startArrow=ERzeroToMany;rounded=0;startSize=8;endSize=8;curved=1;entryX=0.87;entryY=-0.025;entryDx=0;entryDy=0;entryPerimeter=0;exitX=0.25;exitY=1;exitDx=0;exitDy=0;" edge="1" parent="WIyWlLk6GJQsqaUBKTNV-1" source="cOOqRxGyi3BBQuWhHB6f-10" target="cOOqRxGyi3BBQuWhHB6f-1">
          <mxGeometry width="100" height="100" relative="1" as="geometry">
            <mxPoint x="250" y="130" as="sourcePoint" />
            <mxPoint x="380" y="180" as="targetPoint" />
            <Array as="points">
              <mxPoint x="170" y="120" />
              <mxPoint x="180" y="270" />
            </Array>
          </mxGeometry>
        </mxCell>
        <mxCell id="cOOqRxGyi3BBQuWhHB6f-22" value="" style="edgeStyle=entityRelationEdgeStyle;fontSize=12;html=1;endArrow=ERoneToMany;startArrow=ERzeroToMany;rounded=0;startSize=8;endSize=8;curved=1;" edge="1" parent="WIyWlLk6GJQsqaUBKTNV-1" source="cOOqRxGyi3BBQuWhHB6f-0" target="cOOqRxGyi3BBQuWhHB6f-10">
          <mxGeometry width="100" height="100" relative="1" as="geometry">
            <mxPoint x="106.81" y="66.6" as="sourcePoint" />
            <mxPoint x="280.00000000000006" y="-29.999999999999915" as="targetPoint" />
          </mxGeometry>
        </mxCell>
        <mxCell id="cOOqRxGyi3BBQuWhHB6f-24" value="" style="edgeStyle=entityRelationEdgeStyle;fontSize=12;html=1;endArrow=ERoneToMany;startArrow=ERoneToMany;rounded=0;startSize=8;endSize=8;curved=1;entryX=0;entryY=0.25;entryDx=0;entryDy=0;exitX=0.999;exitY=0.852;exitDx=0;exitDy=0;exitPerimeter=0;" edge="1" parent="WIyWlLk6GJQsqaUBKTNV-1" source="cOOqRxGyi3BBQuWhHB6f-10" target="cOOqRxGyi3BBQuWhHB6f-11">
          <mxGeometry width="100" height="100" relative="1" as="geometry">
            <mxPoint x="570" y="320" as="sourcePoint" />
            <mxPoint x="660" y="220" as="targetPoint" />
          </mxGeometry>
        </mxCell>
        <mxCell id="cOOqRxGyi3BBQuWhHB6f-25" value="" style="edgeStyle=entityRelationEdgeStyle;fontSize=12;html=1;endArrow=ERoneToMany;startArrow=ERoneToMany;rounded=0;startSize=8;endSize=8;curved=1;" edge="1" parent="WIyWlLk6GJQsqaUBKTNV-1" source="cOOqRxGyi3BBQuWhHB6f-10" target="cOOqRxGyi3BBQuWhHB6f-9">
          <mxGeometry width="100" height="100" relative="1" as="geometry">
            <mxPoint x="380" y="180" as="sourcePoint" />
            <mxPoint x="480" y="80" as="targetPoint" />
          </mxGeometry>
        </mxCell>
      </root>
    </mxGraphModel>
  </diagram>
</mxfile>
